<svg width="156" height="270" viewBox="0 0 156 270" fill="none" xmlns="http://www.w3.org/2000/svg">
<path d="M89.8696 257.276C89.8696 264.087 84.5554 269.608 78.0001 269.608C71.4447 269.608 66.1305 264.087 66.1305 257.276L66.1305 112.375C66.1305 105.564 71.4447 100.043 78.0001 100.043C84.5554 100.043 89.8696 105.564 89.8696 112.375L89.8696 257.276Z" fill="white"/>
<path d="M138.437 72.4245C145.284 72.4245 150.834 77.9831 150.834 84.8401C150.834 91.6971 145.284 97.2557 138.437 97.2557H18.596C11.7492 97.2557 6.19868 91.6971 6.19868 84.8401C6.19868 77.9831 11.7492 72.4245 18.596 72.4245H138.437Z" fill="#FF605E"/>
<path d="M143.603 48.6279C150.45 48.6279 156 54.1865 156 61.0435C156 67.9005 150.45 73.4591 143.603 73.4591H12.3974C5.55048 73.4591 0 67.9005 0 61.0435C0 54.1865 5.55048 48.6279 12.3974 48.6279H143.603Z" fill="#FF605E"/>
<path d="M138.437 23.7966C145.284 23.7966 150.834 29.3553 150.834 36.2122C150.834 43.0692 145.284 48.6279 138.437 48.6279H18.596C11.7492 48.6279 6.19868 43.0692 6.19868 36.2122C6.19868 29.3553 11.7492 23.7966 18.596 23.7966H138.437Z" fill="#FF605E"/>
<path d="M121.907 0C128.754 3.8329e-07 134.305 5.55867 134.305 12.4156C134.305 19.2726 128.754 24.8312 121.907 24.8313H35.1258C28.279 24.8313 22.7285 19.2726 22.7285 12.4156C22.7285 5.55866 28.279 0 35.1258 0H121.907Z" fill="#FF605E"/>
<path d="M121.907 97.2557C128.754 97.2557 134.305 102.814 134.305 109.671C134.305 116.528 128.754 122.087 121.907 122.087H35.1258C28.279 122.087 22.7285 116.528 22.7285 109.671C22.7285 102.814 28.279 97.2557 35.1258 97.2557H121.907Z" fill="#FF605E"/>
</svg>
