<svg width="40" height="863" viewBox="0 0 40 863" fill="none" xmlns="http://www.w3.org/2000/svg">
<path d="M36.9093 22.9547L3.97731 41.9679L3.97731 3.94141L36.9093 22.9547Z" stroke="white" stroke-width="6" stroke-linejoin="round"/>
<path d="M36.9093 178.955L3.97731 197.968L3.97731 159.941L36.9093 178.955Z" stroke="white" stroke-width="6" stroke-linejoin="round"/>
<path d="M36.9093 334.955L3.97731 353.968L3.97731 315.941L36.9093 334.955Z" stroke="white" stroke-width="6" stroke-linejoin="round"/>
<path d="M36.9093 490.955L3.97732 509.968L3.97732 471.941L36.9093 490.955Z" stroke="white" stroke-width="6" stroke-linejoin="round"/>
<path d="M36.9093 646.955L3.97731 665.968L3.97731 627.941L36.9093 646.955Z" stroke="white" stroke-width="6" stroke-linejoin="round"/>
<path d="M36.9093 61.9547L3.97731 80.968L3.97731 42.9414L36.9093 61.9547Z" stroke="white" stroke-width="6" stroke-linejoin="round"/>
<path d="M36.9093 217.955L3.97731 236.968L3.97731 198.941L36.9093 217.955Z" stroke="white" stroke-width="6" stroke-linejoin="round"/>
<path d="M36.9093 373.955L3.97731 392.968L3.97731 354.941L36.9093 373.955Z" stroke="white" stroke-width="6" stroke-linejoin="round"/>
<path d="M36.9093 529.955L3.97732 548.968L3.97732 510.941L36.9093 529.955Z" stroke="white" stroke-width="6" stroke-linejoin="round"/>
<path d="M36.9093 685.955L3.97731 704.968L3.97731 666.941L36.9093 685.955Z" stroke="white" stroke-width="6" stroke-linejoin="round"/>
<path d="M36.9093 100.955L3.97731 119.968L3.97731 81.9414L36.9093 100.955Z" stroke="white" stroke-width="6" stroke-linejoin="round"/>
<path d="M36.9093 256.955L3.97731 275.968L3.97731 237.941L36.9093 256.955Z" stroke="white" stroke-width="6" stroke-linejoin="round"/>
<path d="M36.9093 412.955L3.97731 431.968L3.97731 393.941L36.9093 412.955Z" stroke="white" stroke-width="6" stroke-linejoin="round"/>
<path d="M36.9093 568.955L3.97732 587.968L3.97732 549.941L36.9093 568.955Z" stroke="white" stroke-width="6" stroke-linejoin="round"/>
<path d="M36.9093 724.955L3.97732 743.968L3.97732 705.941L36.9093 724.955Z" stroke="white" stroke-width="6" stroke-linejoin="round"/>
<path d="M36.9093 801.955L3.97731 820.968L3.97731 782.941L36.9093 801.955Z" stroke="white" stroke-width="6" stroke-linejoin="round"/>
<path d="M36.9093 139.955L3.97731 158.968L3.97731 120.941L36.9093 139.955Z" stroke="white" stroke-width="6" stroke-linejoin="round"/>
<path d="M36.9093 295.955L3.97731 314.968L3.97731 276.941L36.9093 295.955Z" stroke="white" stroke-width="6" stroke-linejoin="round"/>
<path d="M36.9093 451.955L3.97731 470.968L3.97731 432.941L36.9093 451.955Z" stroke="white" stroke-width="6" stroke-linejoin="round"/>
<path d="M36.9093 607.955L3.97732 626.968L3.97732 588.941L36.9093 607.955Z" stroke="white" stroke-width="6" stroke-linejoin="round"/>
<path d="M36.9093 763.955L3.97732 782.968L3.97732 744.941L36.9093 763.955Z" stroke="white" stroke-width="6" stroke-linejoin="round"/>
<path d="M36.9093 840.955L3.97731 859.968L3.97731 821.941L36.9093 840.955Z" stroke="white" stroke-width="6" stroke-linejoin="round"/>
</svg>
